<svg xmlns="http://www.w3.org/2000/svg" viewBox="0 0 64 64">
  <!-- Pokeball top half - red -->
  <path d="M 32 4 A 28 28 0 0 1 60 32 L 38 32 A 6 6 0 0 0 26 32 L 4 32 A 28 28 0 0 1 32 4 Z" fill="#E3350D"/>
  <!-- Pokeball bottom half - white -->
  <path d="M 4 32 A 28 28 0 0 0 32 60 A 28 28 0 0 0 60 32 L 38 32 A 6 6 0 0 1 26 32 Z" fill="#ffffff"/>
  <!-- Middle divider line -->
  <line x1="4" y1="32" x2="26" y2="32" stroke="#1a1a1a" stroke-width="2.5"/>
  <line x1="38" y1="32" x2="60" y2="32" stroke="#1a1a1a" stroke-width="2.5"/>
  <!-- Center button ring -->
  <circle cx="32" cy="32" r="9" fill="#1a1a1a"/>
  <circle cx="32" cy="32" r="6" fill="#ffffff"/>
  <!-- Shine highlight -->
  <circle cx="26" cy="20" r="4" fill="rgba(255,255,255,0.35)"/>
</svg>
